<?xml version="1.0" encoding="UTF-8"?>
<svg version="1.1" xmlns="http://www.w3.org/2000/svg" width="1024" height="1024">
<path d="M0 0 C0.73646759 -0.00705963 1.47293518 -0.01411926 2.23171997 -0.02139282 C33.03322742 -0.2496182 33.03322742 -0.2496182 47.01171875 3.203125 C47.8409082 3.40180176 48.67009766 3.60047852 49.52441406 3.80517578 C62.31387765 6.94954666 74.20860289 11.38757944 86.01171875 17.203125 C86.67397461 17.52539062 87.33623047 17.84765625 88.01855469 18.1796875 C97.70896375 22.94498611 106.43666138 28.65677491 115.01171875 35.203125 C115.92179687 35.88761719 116.831875 36.57210937 117.76953125 37.27734375 C151.57203829 63.76438285 176.24757432 104.3563181 182.01171875 147.203125 C182.12209542 149.55764526 182.09294219 151.84452138 182.01171875 154.203125 C182.84195557 154.02922241 182.84195557 154.02922241 183.68896484 153.85180664 C186.25380612 153.31775384 188.82022272 152.79166568 191.38671875 152.265625 C192.69189453 151.99202148 192.69189453 151.99202148 194.0234375 151.71289062 C235.77292939 143.2083645 281.46735527 152.73355434 317.23632812 175.62695312 C326.11181667 181.51070396 334.26705955 187.88556097 342.01171875 195.203125 C343.36180333 196.35376527 344.71583464 197.4997946 346.07421875 198.640625 C371.68336327 221.18891559 387.81087301 254.31088973 395.01171875 287.203125 C395.17542969 287.91629883 395.33914063 288.62947266 395.5078125 289.36425781 C404.81956372 331.28637744 394.84426708 376.78604499 373.01171875 413.203125 C369.9148426 418.04790112 366.51481638 422.64708975 363.01171875 427.203125 C362.32851563 428.110625 361.6453125 429.018125 360.94140625 429.953125 C343.58259796 452.13015764 320.82857764 469.90357227 295.01171875 481.203125 C294.35171875 481.203125 293.69171875 481.203125 293.01171875 481.203125 C293.50800781 482.18410156 294.00429688 483.16507813 294.515625 484.17578125 C296.33363596 487.77935478 298.13087759 491.39294676 299.92138672 495.01025391 C300.60238591 496.37987655 301.28812492 497.74716475 301.98095703 499.11083984 C321.27152595 537.10176705 324.19163382 583.70752969 311.4765625 624.23828125 C301.2743087 655.21641182 283.52536675 684.42345465 258.01171875 705.203125 C257.28984375 705.81285156 256.56796875 706.42257812 255.82421875 707.05078125 C224.75179356 732.75708038 186.44697368 746.6889986 146.13671875 746.578125 C144.91500473 746.57631226 144.91500473 746.57631226 143.66860962 746.57446289 C96.59237937 746.38548734 54.36990208 727.14101292 21.01171875 694.203125 C18.3243209 691.4046626 15.73706142 688.52063779 13.16796875 685.61328125 C11.18418272 683.39589723 9.13663782 681.28457981 7.01171875 679.203125 C6.79773438 679.73292969 6.58375 680.26273438 6.36328125 680.80859375 C4.49221777 684.12351258 1.97551042 686.7567116 -0.61328125 689.515625 C-1.15670166 690.09739502 -1.70012207 690.67916504 -2.26000977 691.27856445 C-6.28681344 695.54662998 -10.40561508 699.53031423 -14.98828125 703.203125 C-16.31279297 704.30140625 -16.31279297 704.30140625 -17.6640625 705.421875 C-36.0947416 720.22262366 -57.0125775 730.93295216 -79.67578125 737.578125 C-80.83001587 737.9181958 -80.83001587 737.9181958 -82.00756836 738.26513672 C-96.56823881 742.25629502 -111.12211919 743.76671082 -126.17578125 743.640625 C-126.97776947 743.63691895 -127.77975769 743.63321289 -128.60604858 743.62939453 C-177.8668582 743.30712926 -219.93257634 722.15250917 -254.34375 687.85546875 C-279.14722991 661.5158899 -293.73506747 627.72210736 -298.98828125 592.203125 C-299.13910156 591.20925781 -299.28992188 590.21539063 -299.4453125 589.19140625 C-303.83516184 551.90695255 -294.39976857 514.52116126 -275.98828125 482.203125 C-276.52606201 481.89197754 -277.06384277 481.58083008 -277.61791992 481.26025391 C-291.82636168 472.99865062 -304.68537977 464.42602329 -316.76953125 453.2109375 C-318.32475711 451.80356762 -319.93375637 450.45444561 -321.578125 449.15234375 C-325.20650152 446.21788689 -328.01055213 442.78290864 -330.98828125 439.203125 C-331.43123535 438.67783203 -331.87418945 438.15253906 -332.33056641 437.61132812 C-339.86298054 428.64404836 -346.38263286 419.48893609 -351.98828125 409.203125 C-352.33342773 408.57325684 -352.67857422 407.94338867 -353.03417969 407.29443359 C-364.71211912 385.69846955 -372.95860299 360.95937373 -373.2265625 336.234375 C-373.23644699 335.48532394 -373.24633148 334.73627289 -373.2565155 333.96452332 C-373.79085108 282.89146983 -357.47939991 239.16249251 -321.98828125 202.203125 C-321.45912109 201.64842529 -320.92996094 201.09372559 -320.38476562 200.5222168 C-316.16520639 196.18591323 -311.68834254 192.40976209 -306.86328125 188.765625 C-305.74578491 187.91931519 -305.74578491 187.91931519 -304.60571289 187.0559082 C-267.38383613 159.20234172 -221.79390381 147.23789232 -175.67578125 153.640625 C-171.05872505 154.31489005 -166.50530507 155.02047444 -161.98828125 156.203125 C-161.97410156 155.50832031 -161.95992187 154.81351563 -161.9453125 154.09765625 C-160.8771181 131.31913237 -152.58391942 110.10485074 -141.98828125 90.203125 C-141.51285889 89.29433594 -141.51285889 89.29433594 -141.02783203 88.3671875 C-133.90048754 74.82929729 -124.45923873 63.30197058 -113.98828125 52.203125 C-113.26769531 51.41808594 -112.54710937 50.63304687 -111.8046875 49.82421875 C-83.95457195 20.56515975 -40.60096812 0.26051866 0 0 Z M39.29492188 343.04882812 C17.06125459 347.40212497 -5.74132482 345.48560595 -27.98828125 342.203125 C-28.08326904 342.77530762 -28.17825684 343.34749023 -28.27612305 343.93701172 C-32.22175932 367.39539995 -37.75182521 389.6418138 -50.05273438 410.29077148 C-51.20800355 412.29743814 -51.20800355 412.29743814 -50.98828125 415.203125 C-49.99570312 415.73679687 -49.003125 416.27046875 -47.98046875 416.8203125 C-25.88095717 428.86861446 -4.86154762 444.64451449 10.01171875 465.203125 C13.0878761 462.15167574 16.11845479 459.06167971 19.12890625 455.9453125 C28.47409182 446.34196175 37.72645036 437.47160295 49.01171875 430.203125 C49.62998535 429.80448242 50.24825195 429.40583984 50.88525391 428.99511719 C59.61892573 423.43957524 68.68118406 418.67430572 78.01171875 414.203125 C77.51542969 413.23375 77.01914062 412.264375 76.5078125 411.265625 C64.92806308 388.49651931 57.32303783 366.46238266 53.01171875 341.203125 C48.27672429 341.203125 43.90909501 342.12066433 39.29492188 343.04882812 Z " fill="#FEFEFE" transform="translate(499.98828125,138.796875)"/>
<path d="M0 0 C0.80373047 0.21930176 1.60746094 0.43860352 2.43554688 0.66455078 C24.32882936 6.78934796 42.58660081 18.43729528 59 34 C59.474375 34.44182617 59.94875 34.88365234 60.4375 35.33886719 C63.56385954 38.26372308 66.55052329 41.27892341 69.46582031 44.4140625 C71.02537471 46.02623076 72.6681469 47.50103782 74.3359375 49 C77.63100653 52.26593627 80.30279248 55.29056054 81 60 C79.63869244 67.73023275 75.68695085 74.78931935 72.37060547 81.83007812 C70.3341905 86.53987718 69.09811003 91.31203826 68 96.3125 C67.81816162 97.11631104 67.63632324 97.92012207 67.44897461 98.74829102 C66.92753112 101.15937603 66.46045616 103.57658415 66 106 C65.72506714 107.2852356 65.72506714 107.2852356 65.44458008 108.59643555 C63.74751334 117.26556166 63.66154427 125.83431446 63.68432617 134.6340332 C63.68747324 137.16597134 63.66399227 139.69672203 63.63867188 142.22851562 C63.5778988 157.3552102 65.77500701 171.36418262 70.375 185.8125 C70.67591553 186.78880371 70.97683105 187.76510742 71.28686523 188.77099609 C73.23535049 194.97161486 75.4375654 200.8751308 78.34765625 206.6953125 C79.23493494 209.83000967 78.51513068 211.1636393 77 214 C56.94288067 243.94677928 24.55468003 263.62942416 -10.35473633 270.79589844 C-46.56879854 277.85255837 -82.05825845 270.60536173 -112.875 250.5234375 C-120.91324061 245.0748279 -128.01954949 238.72494354 -135 232 C-135.70511719 231.35804688 -136.41023438 230.71609375 -137.13671875 230.0546875 C-159.82276932 208.79514316 -174.88231296 174.01581547 -176 143 C-176.07734375 141.21722656 -176.07734375 141.21722656 -176.15625 139.3984375 C-177.28277197 100.666649 -162.63988613 66.51538738 -137 38 C-136.12988281 37.02160156 -136.12988281 37.02160156 -135.2421875 36.0234375 C-101.0315015 -0.25020444 -47.2705006 -13.25167404 0 0 Z " fill="#3F8BE5" transform="translate(410,575)"/>
<path d="M0 0 C1.95715259 1.70442718 3.78663747 3.4262231 5.625 5.25 C36.42267735 34.45150989 78.45331491 51.19006667 120.82373047 51.18530273 C122.96733142 51.18746702 125.11039745 51.20560751 127.25390625 51.22460938 C136.97745419 51.26272287 146.38493069 50.42754015 156 49 C177.65443949 80.03627491 187.45630314 116.35220349 180.87329102 154.25439453 C180.06237429 158.21402025 179.08756384 162.10793124 178 166 C177.79632812 166.75249023 177.59265625 167.50498047 177.3828125 168.28027344 C167.72879851 202.97811074 143.28128186 233.41885869 112.02539062 251.11816406 C79.73096516 268.69997615 41.65986088 274.76813908 5.96875 264.59375 C-17.66846437 257.46668932 -37.33608651 245.01735736 -55 228 C-55.70511719 227.35804688 -56.41023437 226.71609375 -57.13671875 226.0546875 C-77.42761024 207.03969385 -88.80801863 179.83434579 -94 153 C-94.22429687 151.91976562 -94.44859375 150.83953125 -94.6796875 149.7265625 C-100.7865455 116.51529366 -91.02808387 81.61351088 -72.86328125 53.71875 C-70.97793965 51.08149416 -69.02289405 48.53272913 -67 46 C-66.36578125 45.1646875 -65.7315625 44.329375 -65.078125 43.46875 C-55.42999781 30.96477717 -18.238417 -7.92826709 0 0 Z " fill="#73B3FF" transform="translate(602,582)"/>
<path d="M0 0 C0.96164062 0.83402344 1.92328125 1.66804688 2.9140625 2.52734375 C3.67638184 3.18452393 3.67638184 3.18452393 4.45410156 3.85498047 C31.38088535 27.23699378 50.29403607 59.18386628 53.74853516 95.15966797 C56.23197914 130.68244044 47.97911823 166.59765808 24.9140625 194.52734375 C24.25519043 195.33993652 24.25519043 195.33993652 23.58300781 196.16894531 C13.4732173 208.59228301 2.43905664 218.85182364 -11.0859375 227.52734375 C-12.14167969 228.20667969 -13.19742188 228.88601563 -14.28515625 229.5859375 C-43.4413172 247.28666007 -80.69631369 253.90951284 -114.08129883 246.43408203 C-150.63247788 237.32206519 -182.83277024 215.65412358 -203.0859375 183.52734375 C-215.87647381 162.14586251 -222.95734676 140.43417394 -224.0859375 115.52734375 C-220.20204369 113.08268523 -216.31375987 110.65107542 -212.3671875 108.30859375 C-171.75597551 83.98025447 -143.96422748 45.69446405 -132.33984375 -0.11328125 C-130.55628324 -7.50403538 -129.22213015 -14.95783822 -128.0859375 -22.47265625 C-86.30487873 -38.90153564 -34.33733896 -28.08208729 0 0 Z " fill="#A3CAF8" transform="translate(810.0859375,351.47265625)"/>
<path d="M0 0 C0.68092712 0.00149048 1.36185425 0.00298096 2.06341553 0.0045166 C12.61389207 0.04598933 22.57210187 0.6550365 32.8125 3.3125 C33.90304687 3.5909375 34.99359375 3.869375 36.1171875 4.15625 C72.40509821 14.44817578 102.51995591 37.95639467 121.8125 70.3125 C124.72239753 75.53185954 127.30361315 80.89119903 129.8125 86.3125 C130.21082031 87.14652344 130.60914063 87.98054688 131.01953125 88.83984375 C136.33645695 100.89295421 139.59171965 115.16870965 139.8125 128.3125 C139.83683105 129.1473291 139.86116211 129.9821582 139.88623047 130.84228516 C140.99108426 171.10425514 128.70318833 205.80633739 100.8125 235.3125 C100.06613281 236.12332031 99.31976562 236.93414062 98.55078125 237.76953125 C87.48256225 249.38658755 74.09692279 258.14444224 59.8125 265.3125 C59.16651855 265.63734375 58.52053711 265.9621875 57.85498047 266.296875 C45.14099883 272.50284953 31.68509794 274.98480439 17.8125 277.3125 C16.04132813 277.61607422 16.04132813 277.61607422 14.234375 277.92578125 C-1.80280388 279.73820215 -17.58969154 278.25895635 -33.1875 274.3125 C-34.17621094 274.11140625 -35.16492188 273.9103125 -36.18359375 273.703125 C-38.1875 272.3125 -38.1875 272.3125 -39.12109375 268.6640625 C-39.30607521 267.09044843 -39.47274926 265.51461734 -39.625 263.9375 C-44.96851039 222.39754934 -69.8806548 182.10416887 -102.74609375 156.5078125 C-113.89725118 148.03328389 -125.87029458 140.95511214 -138.1875 134.3125 C-137.53993368 96.51817504 -120.02145915 63.51729945 -93.66040039 37.36547852 C-87.30523203 31.22962356 -80.69844349 25.95414029 -73.1875 21.3125 C-72.55489258 20.92126953 -71.92228516 20.53003906 -71.27050781 20.12695312 C-49.31739836 6.77548094 -25.74007206 -0.1075799 0 0 Z " fill="#1632F4" transform="translate(509.1875,172.6875)"/>
<path d="M0 0 C1.03253906 0.81984375 2.06507813 1.6396875 3.12890625 2.484375 C15.41233843 12.42020142 25.53562669 23.64439408 34 37 C35.01513672 38.57974609 35.01513672 38.57974609 36.05078125 40.19140625 C55.36476712 71.95634999 59.21187931 109.15942259 51 145 C47.02743365 160.10264712 40.08577767 173.71987782 32 187 C30.41616512 186.88152416 28.83295712 186.75467728 27.25 186.625 C26.36828125 186.55539062 25.4865625 186.48578125 24.578125 186.4140625 C21 186 21 186 18.62158203 185.52563477 C9.73221173 183.78593592 1.01671074 183.66155345 -8.00634766 183.68432617 C-10.59971888 183.68746936 -13.19192649 183.66400888 -15.78515625 183.63867188 C-30.99733526 183.57958001 -45.6259976 185.47316485 -60.1875 190 C-61.1352832 190.29197266 -62.08306641 190.58394531 -63.05957031 190.88476562 C-78.07291612 195.73606723 -93.19445977 202.72116967 -106 212 C-106.58765137 212.41830078 -107.17530273 212.83660156 -107.78076172 213.26757812 C-118.26079358 220.7559189 -127.89107007 228.89107007 -137 238 C-141.49952623 237.68551698 -145.23063558 235.5517967 -149.125 233.4375 C-149.78806152 233.07889893 -150.45112305 232.72029785 -151.13427734 232.35083008 C-182.84811536 214.83967562 -207.15738105 184.8886147 -217.46875 150.19921875 C-218.79687711 145.49904087 -219.94451834 140.76820383 -221 136 C-221.2475 134.89011719 -221.495 133.78023437 -221.75 132.63671875 C-227.97412191 97.92859449 -219.47402167 61.50028858 -199.67578125 32.4921875 C-194.88187368 25.94971679 -189.56723259 19.8909089 -184 14 C-183.20335937 13.12730469 -182.40671875 12.25460937 -181.5859375 11.35546875 C-134.92745082 -37.91081854 -52.50412132 -42.63492558 0 0 Z " fill="#2B63F5" transform="translate(384,354)"/>
</svg>
